<svg width="334" height="273" viewBox="0 0 334 273" fill="none" xmlns="http://www.w3.org/2000/svg">
<g clip-path="url(#clip0)">
<path opacity="0.1" d="M326.665 271.981C329.487 269.154 326.22 261.297 319.368 254.432C312.516 247.567 304.673 244.295 301.851 247.122C299.028 249.95 302.295 257.807 309.147 264.672C315.999 271.536 323.842 274.809 326.665 271.981Z" fill="#6C63FF"/>
<path d="M315.5 260.7C317.642 260.7 319.379 258.421 319.379 255.611C319.379 252.8 317.642 250.521 315.5 250.521C313.357 250.521 311.62 252.8 311.62 255.611C311.62 258.421 313.357 260.7 315.5 260.7Z" fill="#3F3D56"/>
<path d="M315.5 254.48C317.642 254.48 319.379 252.202 319.379 249.391C319.379 246.581 317.642 244.302 315.5 244.302C313.357 244.302 311.62 246.581 311.62 249.391C311.62 252.202 313.357 254.48 315.5 254.48Z" fill="#3F3D56"/>
<path d="M315.5 248.261C317.642 248.261 319.379 245.983 319.379 243.172C319.379 240.361 317.642 238.083 315.5 238.083C313.357 238.083 311.62 240.361 311.62 243.172C311.62 245.983 313.357 248.261 315.5 248.261Z" fill="#3F3D56"/>
<path d="M315.5 242.042C317.642 242.042 319.379 239.763 319.379 236.953C319.379 234.142 317.642 231.864 315.5 231.864C313.357 231.864 311.62 234.142 311.62 236.953C311.62 239.763 313.357 242.042 315.5 242.042Z" fill="#3F3D56"/>
<path d="M315.5 235.823C317.642 235.823 319.379 233.545 319.379 230.734C319.379 227.923 317.642 225.645 315.5 225.645C313.357 225.645 311.62 227.923 311.62 230.734C311.62 233.545 313.357 235.823 315.5 235.823Z" fill="#3F3D56"/>
<path d="M315.5 229.604C317.642 229.604 319.379 227.325 319.379 224.515C319.379 221.704 317.642 219.426 315.5 219.426C313.357 219.426 311.62 221.704 311.62 224.515C311.62 227.325 313.357 229.604 315.5 229.604Z" fill="#3F3D56"/>
<path d="M315.5 223.385C317.642 223.385 319.379 221.106 319.379 218.296C319.379 215.485 317.642 213.207 315.5 213.207C313.357 213.207 311.62 215.485 311.62 218.296C311.62 221.106 313.357 223.385 315.5 223.385Z" fill="#3F3D56"/>
<path d="M330.023 175.736C330.554 175.061 331.037 174.349 331.469 173.606L321.273 171.929L332.301 172.009C333.358 169.704 333.936 167.206 333.998 164.67C334.06 162.133 333.606 159.611 332.662 157.256L317.871 164.946L331.505 154.898C330.228 152.683 328.509 150.756 326.456 149.236C324.402 147.716 322.058 146.636 319.57 146.064C317.082 145.492 314.502 145.439 311.993 145.909C309.483 146.38 307.097 147.363 304.984 148.798C302.87 150.232 301.074 152.088 299.708 154.249C298.342 156.409 297.435 158.829 297.043 161.356C296.652 163.884 296.784 166.465 297.432 168.939C298.08 171.413 299.23 173.727 300.81 175.736C299.983 176.787 299.273 177.925 298.691 179.13L311.924 186.012L297.823 181.267C296.833 184.201 296.589 187.336 297.112 190.389C297.635 193.442 298.91 196.316 300.82 198.751C298.664 201.497 297.323 204.795 296.95 208.269C296.577 211.743 297.187 215.252 298.711 218.395C300.235 221.537 302.61 224.187 305.566 226.041C308.522 227.895 311.94 228.878 315.427 228.878C318.915 228.878 322.332 227.895 325.288 226.041C328.244 224.187 330.62 221.537 332.143 218.395C333.667 215.252 334.277 211.743 333.904 208.269C333.531 204.795 332.19 201.497 330.034 198.751C332.61 195.469 334.01 191.415 334.01 187.24C334.01 183.065 332.61 179.011 330.034 175.729L330.023 175.736Z" fill="#E3293F"/>
<path opacity="0.1" d="M296.833 187.247C296.826 191.423 298.227 195.48 300.81 198.758C298.653 201.504 297.312 204.803 296.939 208.277C296.566 211.75 297.176 215.259 298.7 218.402C300.224 221.545 302.599 224.195 305.555 226.048C308.512 227.902 311.929 228.885 315.416 228.885C318.904 228.885 322.321 227.902 325.277 226.048C328.233 224.195 330.609 221.545 332.132 218.402C333.656 215.259 334.266 211.75 333.893 208.277C333.52 204.803 332.179 201.504 330.023 198.758C332.514 195.592 296.833 185.157 296.833 187.247Z" fill="black"/>
<path d="M306.222 0V260.79L218.004 248.475L110.765 270.392L109.901 270.57L24.5747 247.026V20.2837L113.154 0L210.05 20.2837L213.734 19.5049L306.222 0Z" fill="#330000"/>
<path d="M291.398 14.2422V247.58L212.468 236.562L116.517 256.172L115.743 256.328L39.3979 235.265V32.3888L118.657 14.2422L205.349 32.3888L208.647 31.6934L291.398 14.2422Z" fill="white"/>
<path opacity="0.1" d="M218.004 248.475L110.765 270.392L113.155 0L210.05 20.2837L213.734 19.5049L218.004 248.475Z" fill="black"/>
<g opacity="0.3">
<path opacity="0.3" d="M207.295 49.9849L207.338 125.867H238.793V94.7176H292.664L298.991 86.5896" stroke="#444053" stroke-width="3" stroke-miterlimit="10"/>
<path opacity="0.3" d="M32.1675 74.0719H149.129L156.36 70.812H159.252V143.978H209.869L212.039 150.498V183.459H251.086V224.207" stroke="#444053" stroke-width="3" stroke-miterlimit="10"/>
<path opacity="0.3" d="M174.701 224.207V143.978" stroke="#444053" stroke-width="3" stroke-miterlimit="10"/>
<path opacity="0.3" d="M298.991 202.713H174.701" stroke="#444053" stroke-width="3" stroke-miterlimit="10"/>
<path opacity="0.3" d="M267.862 49.9849V224.207" stroke="#444053" stroke-width="3" stroke-miterlimit="10"/>
<path opacity="0.3" d="M31.8057 187.312H298.991" stroke="#444053" stroke-width="3" stroke-miterlimit="10"/>
<path opacity="0.3" d="M64.3237 224.207V49.9849" stroke="#444053" stroke-width="3" stroke-miterlimit="10"/>
<path opacity="0.3" d="M126.431 49.9849V224.207" stroke="#444053" stroke-width="3" stroke-miterlimit="10"/>
<path opacity="0.3" d="M32.1675 93.9932L238.793 94.7176" stroke="#444053" stroke-width="3" stroke-miterlimit="10"/>
<path opacity="0.3" d="M92.3037 50.2998V224.207" stroke="#444053" stroke-width="3" stroke-miterlimit="10"/>
<path opacity="0.3" d="M31.8057 134.314H126.431L174.701 187.313" stroke="#444053" stroke-width="3" stroke-miterlimit="10"/>
<path opacity="0.3" d="M185.157 49.9849V143.978" stroke="#444053" stroke-width="3" stroke-miterlimit="10"/>
<path opacity="0.3" d="M174.701 160.813H298.991" stroke="#444053" stroke-width="3" stroke-miterlimit="10"/>
</g>
<path d="M211.857 160.096H175.341V144.159L209.869 143.978L212.038 150.135L211.857 160.096Z" fill="#E3293F"/>
<path d="M193.78 77.5127C188.479 77.5127 183.396 79.6222 179.647 83.3773C175.899 87.1323 173.793 92.2252 173.793 97.5356C173.793 108.594 193.78 144.521 193.78 144.521C193.78 144.521 213.766 108.608 213.766 97.5356C213.766 92.2252 211.661 87.1323 207.913 83.3773C204.164 79.6222 199.081 77.5127 193.78 77.5127ZM193.78 106.076C192.041 106.076 190.341 105.56 188.895 104.592C187.449 103.624 186.322 102.248 185.656 100.639C184.991 99.0289 184.817 97.2578 185.156 95.549C185.495 93.8402 186.333 92.2706 187.562 91.0387C188.792 89.8068 190.359 88.9678 192.065 88.6279C193.77 88.288 195.538 88.4624 197.145 89.1292C198.752 89.7959 200.125 90.925 201.091 92.3736C202.057 93.8222 202.573 95.5253 202.573 97.2675C202.572 99.6032 201.645 101.843 199.996 103.494C198.347 105.145 196.111 106.073 193.78 106.073V106.076Z" fill="#E3293F"/>
<path opacity="0.1" d="M193.78 77.5127C188.479 77.5127 183.396 79.6222 179.647 83.3773C175.899 87.1323 173.793 92.2252 173.793 97.5356C173.793 108.594 193.78 144.521 193.78 144.521C193.78 144.521 213.766 108.608 213.766 97.5356C213.766 92.2252 211.661 87.1323 207.913 83.3773C204.164 79.6222 199.081 77.5127 193.78 77.5127ZM193.78 106.076C192.041 106.076 190.341 105.56 188.895 104.592C187.449 103.624 186.322 102.248 185.656 100.639C184.991 99.0289 184.817 97.2578 185.156 95.549C185.495 93.8402 186.333 92.2706 187.562 91.0387C188.792 89.8068 190.359 88.9678 192.065 88.6279C193.77 88.288 195.538 88.4624 197.145 89.1292C198.752 89.7959 200.125 90.925 201.091 92.3736C202.057 93.8222 202.573 95.5253 202.573 97.2675C202.572 99.6032 201.645 101.843 199.996 103.494C198.347 105.145 196.111 106.073 193.78 106.073V106.076Z" fill="black"/>
<path d="M193.78 80.4102C188.479 80.4102 183.396 82.5197 179.647 86.2747C175.899 90.0297 173.793 95.1226 173.793 100.433C173.793 111.491 193.78 147.419 193.78 147.419C193.78 147.419 213.766 111.506 213.766 100.433C213.766 95.1226 211.661 90.0297 207.913 86.2747C204.164 82.5197 199.081 80.4102 193.78 80.4102ZM193.78 108.974C192.041 108.974 190.341 108.457 188.895 107.489C187.449 106.521 186.322 105.146 185.656 103.536C184.991 101.926 184.817 100.155 185.156 98.4465C185.495 96.7377 186.333 95.1681 187.562 93.9362C188.792 92.7042 190.359 91.8653 192.065 91.5254C193.77 91.1855 195.538 91.3599 197.145 92.0266C198.752 92.6934 200.125 93.8224 201.091 95.271C202.057 96.7196 202.573 98.4228 202.573 100.165C202.572 102.501 201.645 104.74 199.996 106.391C198.347 108.043 196.111 108.97 193.78 108.97V108.974Z" fill="#E3293F"/>
<path opacity="0.1" d="M187.006 270.234C193.14 267.588 197.231 263.39 196.143 260.858C195.054 258.326 189.199 258.419 183.065 261.066C176.93 263.713 172.839 267.911 173.928 270.443C175.016 272.974 180.871 272.881 187.006 270.234Z" fill="#6C63FF"/>
<path d="M184.893 267.183C186.371 267.183 187.569 265.613 187.569 263.677C187.569 261.74 186.371 260.17 184.893 260.17C183.416 260.17 182.218 261.74 182.218 263.677C182.218 265.613 183.416 267.183 184.893 267.183Z" fill="#3F3D56"/>
<path d="M184.893 262.894C186.371 262.894 187.569 261.324 187.569 259.388C187.569 257.452 186.371 255.882 184.893 255.882C183.416 255.882 182.218 257.452 182.218 259.388C182.218 261.324 183.416 262.894 184.893 262.894Z" fill="#3F3D56"/>
<path d="M184.893 258.61C186.371 258.61 187.569 257.04 187.569 255.103C187.569 253.167 186.371 251.597 184.893 251.597C183.416 251.597 182.218 253.167 182.218 255.103C182.218 257.04 183.416 258.61 184.893 258.61Z" fill="#3F3D56"/>
<path d="M184.893 254.324C186.371 254.324 187.569 252.755 187.569 250.818C187.569 248.882 186.371 247.312 184.893 247.312C183.416 247.312 182.218 248.882 182.218 250.818C182.218 252.755 183.416 254.324 184.893 254.324Z" fill="#3F3D56"/>
<path d="M184.893 250.036C186.371 250.036 187.569 248.466 187.569 246.53C187.569 244.593 186.371 243.023 184.893 243.023C183.416 243.023 182.218 244.593 182.218 246.53C182.218 248.466 183.416 250.036 184.893 250.036Z" fill="#3F3D56"/>
<path d="M184.893 245.751C186.371 245.751 187.569 244.181 187.569 242.245C187.569 240.309 186.371 238.739 184.893 238.739C183.416 238.739 182.218 240.309 182.218 242.245C182.218 244.181 183.416 245.751 184.893 245.751Z" fill="#3F3D56"/>
<path d="M184.893 241.466C186.371 241.466 187.569 239.896 187.569 237.96C187.569 236.023 186.371 234.454 184.893 234.454C183.416 234.454 182.218 236.023 182.218 237.96C182.218 239.896 183.416 241.466 184.893 241.466Z" fill="#3F3D56"/>
<path d="M174.882 208.625C174.517 208.165 174.184 207.681 173.884 207.176L180.913 206.017L173.32 206.075C172.592 204.486 172.195 202.765 172.152 201.017C172.11 199.269 172.424 197.53 173.074 195.908L183.27 201.189L173.87 194.263C174.75 192.737 175.935 191.41 177.35 190.363C178.765 189.316 180.38 188.572 182.095 188.178C183.81 187.783 185.587 187.747 187.316 188.072C189.046 188.396 190.69 189.073 192.146 190.062C193.602 191.051 194.84 192.329 195.781 193.818C196.723 195.307 197.348 196.974 197.618 198.716C197.888 200.457 197.797 202.236 197.351 203.941C196.904 205.646 196.112 207.24 195.024 208.625C195.588 209.351 196.073 210.135 196.47 210.965L187.355 215.713L197.081 212.453C197.764 214.476 197.933 216.637 197.573 218.741C197.212 220.845 196.334 222.826 195.017 224.504C196.503 226.397 197.428 228.671 197.685 231.065C197.943 233.46 197.522 235.879 196.472 238.045C195.422 240.212 193.784 242.038 191.747 243.316C189.709 244.594 187.353 245.272 184.949 245.272C182.545 245.272 180.19 244.594 178.152 243.316C176.114 242.038 174.477 240.212 173.427 238.045C172.376 235.879 171.956 233.46 172.213 231.065C172.471 228.671 173.395 226.397 174.882 224.504C173.107 222.242 172.141 219.448 172.141 216.57C172.141 213.692 173.107 210.898 174.882 208.636V208.625Z" fill="#E3293F"/>
<path opacity="0.1" d="M197.757 216.546C197.762 219.425 196.797 222.222 195.017 224.482C196.503 226.375 197.428 228.649 197.685 231.043C197.943 233.438 197.522 235.857 196.472 238.023C195.422 240.19 193.784 242.017 191.747 243.295C189.709 244.573 187.353 245.25 184.949 245.25C182.545 245.25 180.19 244.573 178.152 243.295C176.114 242.017 174.477 240.19 173.427 238.023C172.376 235.857 171.956 233.438 172.213 231.043C172.471 228.649 173.395 226.375 174.882 224.482C173.165 222.309 197.757 215.119 197.757 216.546Z" fill="black"/>
<path opacity="0.1" d="M29.8316 264.012C32.6541 261.185 29.3874 253.327 22.5352 246.463C15.6831 239.598 7.84023 236.326 5.01776 239.153C2.19529 241.981 5.46198 249.838 12.3141 256.702C19.1663 263.567 27.0091 266.84 29.8316 264.012Z" fill="#6C63FF"/>
<path d="M18.667 252.731C20.8096 252.731 22.5465 250.452 22.5465 247.642C22.5465 244.831 20.8096 242.553 18.667 242.553C16.5245 242.553 14.7876 244.831 14.7876 247.642C14.7876 250.452 16.5245 252.731 18.667 252.731Z" fill="#3F3D56"/>
<path d="M18.667 246.512C20.8096 246.512 22.5465 244.233 22.5465 241.423C22.5465 238.612 20.8096 236.333 18.667 236.333C16.5245 236.333 14.7876 238.612 14.7876 241.423C14.7876 244.233 16.5245 246.512 18.667 246.512Z" fill="#3F3D56"/>
<path d="M18.667 240.292C20.8096 240.292 22.5465 238.014 22.5465 235.203C22.5465 232.393 20.8096 230.114 18.667 230.114C16.5245 230.114 14.7876 232.393 14.7876 235.203C14.7876 238.014 16.5245 240.292 18.667 240.292Z" fill="#3F3D56"/>
<path d="M18.667 234.074C20.8096 234.074 22.5465 231.795 22.5465 228.985C22.5465 226.174 20.8096 223.896 18.667 223.896C16.5245 223.896 14.7876 226.174 14.7876 228.985C14.7876 231.795 16.5245 234.074 18.667 234.074Z" fill="#3F3D56"/>
<path d="M18.667 227.854C20.8096 227.854 22.5465 225.576 22.5465 222.765C22.5465 219.955 20.8096 217.676 18.667 217.676C16.5245 217.676 14.7876 219.955 14.7876 222.765C14.7876 225.576 16.5245 227.854 18.667 227.854Z" fill="#3F3D56"/>
<path d="M18.667 221.636C20.8096 221.636 22.5465 219.357 22.5465 216.547C22.5465 213.736 20.8096 211.458 18.667 211.458C16.5245 211.458 14.7876 213.736 14.7876 216.547C14.7876 219.357 16.5245 221.636 18.667 221.636Z" fill="#3F3D56"/>
<path d="M18.667 215.416C20.8096 215.416 22.5465 213.138 22.5465 210.327C22.5465 207.517 20.8096 205.238 18.667 205.238C16.5245 205.238 14.7876 207.517 14.7876 210.327C14.7876 213.138 16.5245 215.416 18.667 215.416Z" fill="#3F3D56"/>
<path d="M33.1903 167.768C33.7211 167.092 34.2044 166.381 34.6365 165.638L24.4408 163.961L35.4681 164.041C36.5259 161.735 37.1036 159.238 37.1657 156.702C37.2279 154.165 36.7733 151.642 35.8296 149.288L21.0386 156.978L34.6727 146.93C33.3956 144.715 31.6767 142.788 29.6233 141.268C27.5699 139.748 25.2259 138.668 22.7376 138.096C20.2492 137.523 17.6699 137.471 15.1603 137.941C12.6507 138.411 10.2648 139.395 8.15125 140.829C6.03769 142.264 4.24185 144.12 2.87569 146.28C1.50953 148.441 0.602346 150.861 0.21071 153.388C-0.180927 155.916 -0.0486177 158.497 0.59938 160.971C1.24738 163.445 2.39717 165.759 3.97707 167.768C3.15059 168.819 2.44022 169.957 1.85839 171.162L15.0911 178.044L0.990666 173.299C0.000588834 176.233 -0.243842 179.368 0.279477 182.421C0.802795 185.473 2.07736 188.347 3.98792 190.782C1.83181 193.529 0.490547 196.827 0.117492 200.301C-0.255563 203.775 0.35464 207.284 1.87834 210.426C3.40204 213.569 5.77773 216.219 8.73381 218.073C11.6899 219.927 15.107 220.91 18.5945 220.91C22.0821 220.91 25.4992 219.927 28.4553 218.073C31.4114 216.219 33.7871 213.569 35.3108 210.426C36.8345 207.284 37.4447 203.775 37.0716 200.301C36.6985 196.827 35.3573 193.529 33.2012 190.782C35.7774 187.501 37.178 183.447 37.178 179.272C37.178 175.096 35.7774 171.042 33.2012 167.761L33.1903 167.768Z" fill="#E3293F"/>
<path opacity="0.1" d="M2.59992e-05 179.279C-0.00696095 183.455 1.39448 187.511 3.97708 190.79C1.82096 193.536 0.479705 196.834 0.10665 200.308C-0.266406 203.782 0.343798 207.291 1.8675 210.434C3.39119 213.577 5.76689 216.226 8.72296 218.08C11.679 219.934 15.0962 220.917 18.5837 220.917C22.0712 220.917 25.4884 219.934 28.4444 218.08C31.4005 216.226 33.7762 213.577 35.2999 210.434C36.8236 207.291 37.4338 203.782 37.0607 200.308C36.6877 196.834 35.3464 193.536 33.1903 190.79C35.6814 187.624 2.59992e-05 177.189 2.59992e-05 179.279Z" fill="black"/>
</g>
<defs>
<clipPath id="clip0">
<rect width="334" height="273" fill="white"/>
</clipPath>
</defs>
</svg>
